<svg width="405" height="94" viewBox="0 0 405 94" fill="none" xmlns="http://www.w3.org/2000/svg">
<path d="M38.1813 87.9925C34.2653 87.0135 30.3938 85.0555 23.6298 80.6945C16.2873 75.8885 13.1723 74.3755 8.18826 73.0405L4.45026 72.0615V62.0935V52.17H6.36376C9.30076 52.17 14.1068 53.3715 17.2218 54.84C18.8238 55.552 23.1403 58.133 26.8338 60.5805C37.3358 67.389 40.0503 68.457 45.8353 68.0565C50.2408 67.745 53.8453 66.2765 60.8763 61.871C67.4178 57.7325 72.7578 54.84 75.7838 53.7275L77.8753 52.9265V49.233C77.8753 46.474 77.7418 45.495 77.2968 45.495C76.0953 45.495 69.4203 49.055 63.8578 52.704C54.2013 59.0675 50.2853 60.625 44.2778 60.625C38.2258 60.625 33.6423 58.845 25.0093 53.149C16.9103 47.7645 13.0388 45.8955 7.56526 44.872L4.67276 44.338L4.53926 34.2365L4.45026 24.135H5.87426C9.07826 24.1795 13.6173 25.114 16.7323 26.4045C18.5568 27.161 23.4963 30.0535 27.6793 32.857C37.2468 39.2205 38.9378 39.9325 44.5003 39.9325C48.4163 39.9325 48.9503 39.799 52.0653 38.3305C53.9343 37.4405 57.7168 35.26 60.5203 33.48C66.8838 29.4305 72.0458 26.716 75.3388 25.648L77.8753 24.847V20.9755V17.0595L75.5613 17.727C72.3573 18.6615 68.1743 20.9755 63.6353 24.3575C54.6018 31.0325 51.0418 32.5455 44.6783 32.59C38.0923 32.59 35.1553 31.433 25.9883 25.203C17.6223 19.507 12.5493 17.371 6.23026 16.926L4.67276 16.7925L4.53926 13.4995L4.40576 10.2065L7.47626 10.4735C14.5073 11.052 20.3368 13.455 28.9253 19.329C35.3778 23.7345 38.0033 25.114 41.3408 25.915C46.2803 27.072 51.2643 25.47 57.8503 20.575C68.2188 12.832 74.0483 10.34 81.6133 10.34H84.5503V20.3525V30.3205L82.9038 30.5875C76.6738 31.6555 72.8023 33.3465 64.7478 38.553C53.0888 46.029 47.2593 47.809 39.5163 46.1625C35.6448 45.3615 31.6843 43.359 24.3863 38.464C18.3788 34.459 14.5963 32.323 12.3268 31.6555L11.0808 31.2995L11.2143 35.082L11.3478 38.8645L14.2403 39.888C18.3788 41.3565 21.2713 42.8695 27.8128 47.186C42.2753 56.6645 46.1913 56.62 60.9653 46.83C69.3313 41.312 74.0483 39.176 78.9878 38.5975C80.4563 38.464 82.3253 38.2415 83.1263 38.108L84.5503 37.93V48.076V58.222L81.6578 58.8005C78.0088 59.557 73.2473 61.8265 66.2608 66.232C55.3138 73.0405 51.1308 74.6425 44.2778 74.598C37.5583 74.509 33.4198 72.818 22.9623 65.7425C18.8683 62.9835 14.7298 60.6695 12.1933 59.735L11.1253 59.29V63.206V67.122L13.1278 67.7005C16.1538 68.5905 22.1168 71.7945 27.4123 75.3545C41.2073 84.566 47.1258 84.477 62.7898 74.776C71.5118 69.347 76.7183 67.0775 81.7023 66.588L84.5503 66.2765V69.3915V72.5065L81.7913 73.085C77.6083 73.886 73.8703 75.6215 66.2608 80.205C58.2508 85.0555 54.1123 87.058 50.1963 87.9925C46.7698 88.7935 41.5633 88.7935 38.1813 87.9925Z" fill="url(#paint0_linear)"/>
<path d="M125.992 27.52H109.288V19.6H152.056V27.52H135.352V70H125.992V27.52ZM190.423 50.992C190.423 51.616 190.375 52.504 190.279 53.656H160.111C160.639 56.488 162.007 58.744 164.215 60.424C166.471 62.056 169.255 62.872 172.567 62.872C176.791 62.872 180.271 61.48 183.007 58.696L187.831 64.24C186.103 66.304 183.919 67.864 181.279 68.92C178.639 69.976 175.663 70.504 172.351 70.504C168.127 70.504 164.407 69.664 161.191 67.984C157.975 66.304 155.479 63.976 153.703 61C151.975 57.976 151.111 54.568 151.111 50.776C151.111 47.032 151.951 43.672 153.631 40.696C155.359 37.672 157.735 35.32 160.759 33.64C163.783 31.96 167.191 31.12 170.983 31.12C174.727 31.12 178.063 31.96 180.991 33.64C183.967 35.272 186.271 37.6 187.903 40.624C189.583 43.6 190.423 47.056 190.423 50.992ZM170.983 38.32C168.103 38.32 165.655 39.184 163.639 40.912C161.671 42.592 160.471 44.848 160.039 47.68H181.855C181.471 44.896 180.295 42.64 178.327 40.912C176.359 39.184 173.911 38.32 170.983 38.32ZM247.596 31.12C252.444 31.12 256.284 32.536 259.116 35.368C261.948 38.152 263.364 42.352 263.364 47.968V70H254.364V49.12C254.364 45.76 253.62 43.24 252.132 41.56C250.644 39.832 248.508 38.968 245.724 38.968C242.7 38.968 240.276 39.976 238.452 41.992C236.628 43.96 235.716 46.792 235.716 50.488V70H226.716V49.12C226.716 45.76 225.972 43.24 224.484 41.56C222.996 39.832 220.86 38.968 218.076 38.968C215.004 38.968 212.556 39.952 210.732 41.92C208.956 43.888 208.068 46.744 208.068 50.488V70H199.068V31.552H207.636V36.448C209.076 34.72 210.876 33.4 213.036 32.488C215.196 31.576 217.596 31.12 220.236 31.12C223.116 31.12 225.66 31.672 227.868 32.776C230.124 33.832 231.9 35.416 233.196 37.528C234.78 35.512 236.82 33.952 239.316 32.848C241.812 31.696 244.572 31.12 247.596 31.12ZM296.177 31.12C299.921 31.12 303.257 31.936 306.185 33.568C309.161 35.2 311.489 37.504 313.169 40.48C314.849 43.456 315.689 46.888 315.689 50.776C315.689 54.664 314.849 58.12 313.169 61.144C311.489 64.12 309.161 66.424 306.185 68.056C303.257 69.688 299.921 70.504 296.177 70.504C290.993 70.504 286.889 68.776 283.865 65.32V83.968H274.865V31.552H283.433V36.592C284.921 34.768 286.745 33.4 288.905 32.488C291.113 31.576 293.537 31.12 296.177 31.12ZM295.169 62.8C298.481 62.8 301.193 61.696 303.305 59.488C305.465 57.28 306.545 54.376 306.545 50.776C306.545 47.176 305.465 44.272 303.305 42.064C301.193 39.856 298.481 38.752 295.169 38.752C293.009 38.752 291.065 39.256 289.337 40.264C287.609 41.224 286.241 42.616 285.233 44.44C284.225 46.264 283.721 48.376 283.721 50.776C283.721 53.176 284.225 55.288 285.233 57.112C286.241 58.936 287.609 60.352 289.337 61.36C291.065 62.32 293.009 62.8 295.169 62.8ZM361.448 31.552V70H352.88V65.104C351.44 66.832 349.64 68.176 347.48 69.136C345.32 70.048 342.992 70.504 340.496 70.504C335.36 70.504 331.304 69.088 328.328 66.256C325.4 63.376 323.936 59.128 323.936 53.512V31.552H332.936V52.288C332.936 55.744 333.704 58.336 335.24 60.064C336.824 61.744 339.056 62.584 341.936 62.584C345.152 62.584 347.696 61.6 349.568 59.632C351.488 57.616 352.448 54.736 352.448 50.992V31.552H361.448ZM385.112 70.504C381.992 70.504 378.944 70.096 375.968 69.28C372.992 68.464 370.616 67.432 368.84 66.184L372.296 59.344C374.024 60.496 376.088 61.432 378.488 62.152C380.936 62.824 383.336 63.16 385.688 63.16C391.064 63.16 393.752 61.744 393.752 58.912C393.752 57.568 393.056 56.632 391.664 56.104C390.32 55.576 388.136 55.072 385.112 54.592C381.944 54.112 379.352 53.56 377.336 52.936C375.368 52.312 373.64 51.232 372.152 49.696C370.712 48.112 369.992 45.928 369.992 43.144C369.992 39.496 371.504 36.592 374.528 34.432C377.6 32.224 381.728 31.12 386.912 31.12C389.552 31.12 392.192 31.432 394.832 32.056C397.472 32.632 399.632 33.424 401.312 34.432L397.856 41.272C394.592 39.352 390.92 38.392 386.84 38.392C384.2 38.392 382.184 38.8 380.792 39.616C379.448 40.384 378.776 41.416 378.776 42.712C378.776 44.152 379.496 45.184 380.936 45.808C382.424 46.384 384.704 46.936 387.776 47.464C390.848 47.944 393.368 48.496 395.336 49.12C397.304 49.744 398.984 50.8 400.376 52.288C401.816 53.776 402.536 55.888 402.536 58.624C402.536 62.224 400.976 65.104 397.856 67.264C394.736 69.424 390.488 70.504 385.112 70.504Z" fill="url(#paint1_linear)"/>
<defs>
<linearGradient id="paint0_linear" x1="-15.5027" y1="33.3662" x2="161.31" y2="43.7725" gradientUnits="userSpaceOnUse">
<stop stop-color="#6BB9BA"/>
<stop offset="1" stop-color="#5E5BE1"/>
</linearGradient>
<linearGradient id="paint1_linear" x1="-250.5" y1="-6.50002" x2="493.297" y2="70.6825" gradientUnits="userSpaceOnUse">
<stop stop-color="#5E5BE1"/>
<stop offset="1" stop-color="#6BB9BA"/>
</linearGradient>
</defs>
</svg>
