<svg class="img-fluid" id="outputsvg" xmlns="http://www.w3.org/2000/svg"
    style="transform: matrix(0.60113, 0, 0, 0.60113, 0, 0); transform-origin: 50% 50%; cursor: move; transition: transform 200ms ease-in-out 0s;"
    width="200" height="200" viewBox="0 0 2000 2000">
    <g id="l49j8yI1zVtVnHL0ls8iiqv" fill="rgb(0,0,0)" style="transform: none;">
        <g style="transform: none;">
            <path id="plrpd90I"
                d="M0 1000 l0 -1000 1000 0 1000 0 0 1000 0 1000 -1000 0 -1000 0 0 -1000z m1098 835 c88 -21 181 -66 361 -175 171 -103 255 -142 349 -160 l62 -13 0 -38 c0 -38 0 -38 -32 -33 -100 18 -224 74 -397 182 -238 147 -363 186 -525 163 -99 -14 -184 -52 -330 -150 -119 -80 -253 -152 -321 -172 l-45 -13 0 -118 0 -118 33 0 c44 0 170 62 292 144 217 147 331 197 450 199 122 1 235 -44 464 -187 157 -99 264 -150 346 -167 l65 -13 0 -194 0 -195 -62 7 c-113 13 -220 62 -408 187 -223 147 -329 183 -474 162 -94 -13 -166 -47 -331 -155 -147 -97 -212 -131 -305 -164 l-65 -23 -3 -117 -3 -117 50 6 c64 8 144 49 309 159 168 112 254 156 348 175 67 14 81 13 148 -1 87 -20 201 -75 351 -172 181 -117 268 -155 408 -179 l37 -6 0 -194 0 -195 -36 0 c-50 0 -170 29 -231 56 -63 27 -158 88 -273 174 -119 89 -195 121 -296 128 -143 8 -209 -17 -414 -156 -178 -122 -295 -173 -448 -197 l-43 -7 3 44 c3 41 4 43 38 46 142 10 256 58 444 186 194 132 275 166 390 166 110 -1 208 -46 396 -185 140 -103 271 -165 352 -165 l28 0 0 118 0 118 -57 18 c-74 24 -190 85 -333 176 -63 40 -148 89 -190 109 -74 35 -77 36 -200 36 -159 0 -185 -10 -397 -152 -209 -140 -297 -181 -426 -197 l-47 -6 2 197 3 197 65 12 c123 23 210 65 392 186 138 91 216 130 303 153 150 38 253 5 510 -163 167 -109 275 -162 332 -162 l43 0 0 114 0 113 -47 18 c-68 25 -188 90 -335 183 -177 111 -237 134 -369 140 -165 7 -210 -10 -454 -168 -209 -136 -273 -165 -402 -185 l-43 -7 0 195 0 194 84 22 c112 30 182 64 347 172 252 164 376 202 537 164z">
            </path>
        </g>
    </g>
    <g id="l6oTdK12am6iUDh6Uz1Kt8Y" fill="rgb(107,185,186)" style="transform: none;">
        <g style="transform: none;">
            <path id="paKTrLPar"
                d="M858 1865 c-88 -22 -175 -66 -327 -164 -165 -108 -235 -142 -347 -172 l-84 -22 0 -224 0 -223 43 0 c66 0 174 27 244 60 36 16 133 74 216 129 236 153 297 177 427 168 99 -7 180 -40 338 -139 147 -93 267 -158 335 -183 l47 -18 0 -83 c0 -62 -3 -84 -13 -84 -27 0 -177 80 -302 162 -217 143 -305 178 -440 178 -136 0 -239 -40 -433 -168 -182 -121 -269 -163 -392 -186 l-65 -12 -3 -227 -2 -227 32 0 c72 1 174 22 244 51 41 17 152 82 246 145 215 143 253 159 378 159 88 0 100 -3 170 -36 42 -20 127 -69 190 -109 143 -91 259 -152 333 -176 l57 -18 0 -87 0 -88 -52 15 c-72 21 -166 73 -268 149 -203 150 -283 184 -426 185 -148 0 -214 -26 -420 -166 -188 -128 -302 -176 -444 -186 l-35 -3 -3 -74 -3 -74 69 6 c158 13 289 67 482 199 145 99 204 130 279 148 111 26 223 -10 371 -120 233 -174 364 -230 534 -230 l66 0 0 225 0 224 -37 6 c-140 24 -227 62 -408 179 -262 168 -393 208 -567 171 -87 -18 -176 -63 -340 -173 -135 -90 -220 -138 -271 -153 l-28 -8 3 85 3 85 65 23 c93 33 158 67 305 164 325 213 413 212 745 -8 188 -124 294 -172 405 -185 33 -3 75 -8 93 -11 l32 -4 0 228 0 228 -65 13 c-82 17 -189 68 -346 167 -246 153 -340 189 -494 188 -151 -2 -244 -40 -479 -199 -92 -62 -185 -114 -242 -135 l-24 -10 0 88 0 88 45 13 c68 20 202 92 321 172 310 207 443 205 795 -13 196 -122 313 -173 425 -184 l64 -7 0 70 0 70 -62 13 c-94 18 -178 57 -349 160 -180 109 -273 154 -361 175 -77 18 -194 18 -270 0z">
            </path>
        </g>
    </g>
</svg>